# xmcd
#
# Track frame offsets:
#	150
#	13597
#	29410
#	44797
#	63045
#	75597
#	92675
#	107432
#	122285
#	139907
#	155742
#	170780
#	184325
#	197297
#	214190
#
# Disc length: 3080 seconds
#
# Revision: 1
# Processed by: cddbd v1.5.1PL2 Copyright (c) Steve Scherf et al.
# Submitted via: audiograbber 1.83.01
#
DISCID=c80c060f
DTITLE=Music Maestro - MM6162
DYEAR=1900
DGENRE=Karaoke
TTITLE0=Rimes, LeAnn - Hurt Me
TTITLE1=Tritt, Travis - More Than You'll Ever Know
TTITLE2=England, Ty - Irresistible You
TTITLE3=4 Runner - That Was Him
TTITLE4=Brown, Junior - Venom Wearin' Denim
TTITLE5=Murphy, David Lee - Road You Leave Behind, The
TTITLE6=Frazier River - Tangled Up In Texas
TTITLE7=Morgan Lorrie - It Just Might Be
TTITLE8=Stewart, Larry - Why Can't You
TTITLE9=Berry, John - Change My Mind
TTITLE10=Jefferson, Paul - Fear Of A Broken Heart
TTITLE11=Clark, Terri - Something You Should've Said
TTITLE12=Bentley, Stephanie - Hangin' And Hangin' On
TTITLE13=Bentley, Stephanie - Once I Was The Light Of Your Life
TTITLE14=Brandt, Paul - I Do
EXTD=As Listed In KJ Pro
EXTT0=
EXTT1=
EXTT2=
EXTT3=
EXTT4=
EXTT5=
EXTT6=
EXTT7=
EXTT8=
EXTT9=
EXTT10=
EXTT11=
EXTT12=
EXTT13=
EXTT14=
PLAYORDER=
